<svg id="Layer_1" xmlns="http://www.w3.org/2000/svg" width="101.5" height="74.9" viewBox="0 0 101.5 74.9"><style>.st0{fill:#010101;}</style><path class="st0" d="M.2 56.4c0 .4-.1.7-.2 1.1h100.5c0-.4.1-.7.1-1.1H.2zM.3 44.5c0 .4 0 .7-.1 1.1H101v-1.1H.3zM.2 33.7H101v-1.1H.3c0 .4 0 .7-.1 1.1zM.2 20.7c0 .4.1.7 0 1.1h101.1c0-.4 0-.7.1-1.1H.2zM0 9.9h101.5c-.1-.4-.1-.7-.1-1.1H.3c-.1.4-.2.7-.3 1.1z"/><path class="st0" d="M32.7 24.3c.6-6 5-11.8 11.1-16 6-4.2 13.7-7 20.4-7 3.6 0 6.9.8 9.6 2.4l.4-.6C71.3 1.3 67.9.6 64.2.6c-6.9 0-14.7 2.8-20.8 7.1-6.2 4.3-10.9 10.2-11.5 16.5l.8.1z"/><path class="st0" d="M32.3 24.3C33 7.2 59.8-6.2 74 3.5c-12.7-6.8-39.5 6.6-41.7 20.8z"/><path class="st0" d="M32.3 24.3h.2C33 11.3 48.9.4 62.6.4c4.1 0 8.1 1 11.3 3.2l.1-.2.1-.2c-2.3-1.2-5.2-1.8-8.2-1.8-13.6.1-31.9 11.1-33.8 22.8l.2.1h.2-.2.2c1.8-11.4 20-22.5 33.4-22.5 3 0 5.8.5 8 1.8l.2-.3C70.8 1 66.7 0 62.6 0 48.7 0 32.7 11 32.1 24.3h.4-.2zM22.8 35.1v39.8h1.1V35.1"/><path class="st0" d="M28.3 39.4c4.9 0 11-4.1 11-8.3 0-2.5-2.2-4.1-5.4-4.1-4.8 0-10.9 4-10.9 8.3 0 2.6 2.3 4.1 5.3 4.1zM67.5 17.2V57h1.1V17.2"/><path class="st0" d="M73 21.5c4.9 0 10.9-4.1 10.9-8.3 0-2.5-2.2-4.1-5.4-4.1-4.8 0-10.9 4-10.9 8.3 0 2.6 2.4 4.1 5.4 4.1z"/></svg>