<?xml version="1.0" encoding="utf-8"?>
<!-- Generator: Adobe Illustrator 21.1.0, SVG Export Plug-In . SVG Version: 6.00 Build 0)  -->
<svg version="1.1" id="Layer_1" xmlns="http://www.w3.org/2000/svg" xmlns:xlink="http://www.w3.org/1999/xlink" x="0px" y="0px"
	 viewBox="0 0 159.7 77.6" style="enable-background:new 0 0 159.7 77.6;" xml:space="preserve">
<style type="text/css">
	.st0{fill:none;stroke:#010101;stroke-width:0.465;stroke-linejoin:bevel;stroke-miterlimit:10;}
	.st1{fill:none;stroke:#010101;stroke-width:0.31;stroke-linejoin:bevel;stroke-miterlimit:10;}
	.st2{fill:#010101;}
	.st3{fill:none;stroke:#010101;stroke-width:0.155;stroke-linejoin:bevel;stroke-miterlimit:10;}
	.st4{enable-background:new    ;}
</style>
<path class="st0" d="M0.5,65.2C53.6,65,106.6,65,159.7,65.1"/>
<path class="st0" d="M0,53.2c53.2-0.2,106.4-0.3,159.5-0.1"/>
<path class="st0" d="M0.5,41.2c53-0.3,106.1-0.3,159.1-0.1"/>
<path class="st0" d="M0.1,29.3C53.2,29,106.4,29,159.5,29.2"/>
<path class="st0" d="M0.2,17.3C53.3,17,106.4,17,159.6,17.2"/>
<path class="st1" d="M29.1,24C44.7,6.6,115,6.6,131,24"/>
<path class="st2" d="M29.1,24C44.7,4.7,115,4.7,131,24C115,8.4,44.7,8.4,29.1,24z"/>
<path class="st3" d="M29.1,24C44.7,4.7,115,4.7,131,24C115,8.4,44.7,8.4,29.1,24z"/>
<line class="st0" x1="19.4" y1="37.8" x2="19.4" y2="77.6"/>
<g class="st4">
	<path class="st2" d="M19.1,38c0-4.3,6-8.3,10.9-8.3c3.2,0,5.4,1.6,5.4,4.1c0,4.2-6,8.3-11,8.3C21.4,42.1,19.1,40.6,19.1,38z"/>
</g>
<line class="st0" x1="125.1" y1="37.8" x2="125.1" y2="77.6"/>
<g class="st4">
	<path class="st2" d="M124.7,38c0-4.3,6-8.3,10.9-8.3c3.2,0,5.4,1.6,5.4,4.1c0,4.2-6,8.3-11,8.3C127,42.1,124.7,40.6,124.7,38z"/>
</g>
</svg>
