<svg id="Layer_1" xmlns="http://www.w3.org/2000/svg" width="105.1" height="33.6" viewBox="0 0 105.1 33.6"><style>.st0{fill:#010101;}</style><path class="st0" d="M10.7 0v26c-.7-.7-1.7-1.1-3.1-1.1-3.3 0-7.6 2.8-7.6 5.9 0 1.9 1.6 2.9 3.7 2.9 3.5 0 7.7-2.8 7.7-5.8V0h-.7zM24.8 16.8v3.3H43v-3.3H24.8zm0 7.9V28H43v-3.3H24.8zM65.4 11.3h-2c-1.2 1.1-3.9 2.6-5.8 3.1v1.5h.6c2.1 0 2.9.8 2.9 2.9v9.9c0 2.7-.8 3.4-3.1 3.4h-.4v1.3h11.3v-1.3h-.6c-1.9 0-2.9-.8-2.9-2.6V11.3zM82.8 11.3h-2c-1.2 1.1-3.9 2.6-5.8 3.1v1.5h.6c2.1 0 2.9.8 2.9 2.9v9.9c0 2.7-.8 3.4-3.1 3.4H75v1.3h11.3v-1.3h-.6c-1.9 0-2.9-.8-2.9-2.6V11.3zM105.1 27.5h-1.5c-.5 1.4-1.2 1.8-2.6 1.8h-6.2l5-5c2.7-2.7 4.1-5 4.1-7.8 0-3-2.6-5.3-6-5.3-2.6 0-5.1 1.3-7.2 3.8l.9 1c1.3-1.2 2.3-1.7 3.7-1.7 2.4 0 4.3 1.7 4.3 4.1 0 2.8-2.7 7.3-9.3 13.4v1.4h12.9l1.9-5.7z"/></svg>