<svg id="Layer_1" xmlns="http://www.w3.org/2000/svg" width="67.9" height="67.7" viewBox="0 0 67.9 67.7"><style>.st0{fill:#010101;}</style><path class="st0" d="M19.5 5L0 0v1.9L13.6 5 0 8.1V10zM67.9 62.7l-19.5-5v1.9l13.5 3.1-13.5 3.1v1.9zM1.3 23.8v39.8h1.1V23.8"/><path class="st0" d="M6.8 28.1c4.9 0 11-4.1 11-8.3 0-2.5-2.2-4.1-5.4-4.1-4.8 0-10.9 4-10.9 8.3 0 2.6 2.3 4.1 5.3 4.1zM66.4 43.9V4h-1.1v39.9"/><path class="st0" d="M55.2 51.9c4.9 0 11-4.1 11-8.3 0-2.5-2.2-4.1-5.4-4.1-4.8 0-10.9 4-10.9 8.3 0 2.6 2.3 4.1 5.3 4.1z"/></svg>